<mxfile host="app.diagrams.net" modified="2023-07-24T01:41:35.209Z" agent="Mozilla/5.0 (Windows NT 10.0; Win64; x64) AppleWebKit/537.36 (KHTML, like Gecko) Chrome/114.0.0.0 Safari/537.36" etag="sMmb8JbhuzNHPI1Wo20W" version="21.6.5" type="github">
  <diagram name="Page-1" id="eD07VpkWPWz3OYxA3sFJ">
    <mxGraphModel dx="472" dy="662" grid="1" gridSize="10" guides="1" tooltips="1" connect="1" arrows="1" fold="1" page="1" pageScale="1" pageWidth="827" pageHeight="1169" math="0" shadow="0">
      <root>
        <mxCell id="0" />
        <mxCell id="1" parent="0" />
        <mxCell id="Tsj-n0M2Gg3x3_QIa10t-1" value="Microservices Team" style="rounded=1;whiteSpace=wrap;html=1;fillColor=#fff2cc;strokeColor=#d6b656;" vertex="1" parent="1">
          <mxGeometry x="190" y="310" width="120" height="30" as="geometry" />
        </mxCell>
        <mxCell id="Tsj-n0M2Gg3x3_QIa10t-2" value="System design team" style="rounded=1;whiteSpace=wrap;html=1;rotation=90;fillColor=#e1d5e7;strokeColor=#9673a6;" vertex="1" parent="1">
          <mxGeometry x="100" y="310" width="120" height="60" as="geometry" />
        </mxCell>
      </root>
    </mxGraphModel>
  </diagram>
</mxfile>
